<?xml version="1.0" standalone="no"?>
<!DOCTYPE svg PUBLIC "-//W3C//DTD SVG 20010904//EN"
 "http://www.w3.org/TR/2001/REC-SVG-20010904/DTD/svg10.dtd">
<svg version="1.0" xmlns="http://www.w3.org/2000/svg"
 width="178.096371pt" height="179.522375pt" viewBox="0 0 178.096371 179.522375"
 preserveAspectRatio="xMidYMid meet">
<metadata>
Created by potrace 1.12, written by Peter Selinger 2001-2015
</metadata>
<g transform="translate(-10.563246,189.632994) scale(0.100000,-0.100000)"
fill="#000000" stroke="none">
<path d="M853 1886 c-339 -65 -594 -287 -702 -611 -108 -326 -20 -681 227
-917 253 -242 603 -319 929 -205 154 53 326 181 426 316 67 91 132 235 152
341 5 25 -5 11 -36 -50 -34 -66 -63 -105 -134 -176 -78 -78 -104 -98 -185
-137 -152 -73 -295 -93 -452 -63 -407 78 -667 485 -564 883 62 238 244 431
481 510 71 24 95 27 215 27 111 0 146 -4 200 -22 35 -12 66 -20 67 -18 9 9
-171 88 -242 106 -103 27 -283 35 -382 16z"/>
<path d="M1584 1549 l-30 -94 -98 -5 -98 -5 76 -55 c41 -30 76 -59 76 -65 0
-5 -12 -45 -26 -88 -14 -43 -24 -81 -20 -84 3 -3 36 18 74 46 38 28 73 51 77
51 5 0 41 -25 82 -55 40 -31 73 -50 73 -44 0 6 -12 49 -26 96 -17 52 -23 87
-17 91 5 4 40 30 77 57 l68 50 -99 3 -98 3 -30 96 -30 96 -31 -94z"/>
</g>
</svg>
