<?xml version="1.0" encoding="utf-8"?>
<!-- Generator: Adobe Illustrator 24.1.1, SVG Export Plug-In . SVG Version: 6.00 Build 0)  -->
<svg version="1.1" id="Layer_1" xmlns="http://www.w3.org/2000/svg" xmlns:xlink="http://www.w3.org/1999/xlink" x="0px" y="0px"
	 viewBox="0 0 512 512" style="enable-background:new 0 0 512 512;" xml:space="preserve">
<g>
	<path d="M179.6,471.7c4.1,4.4,3.8,11.3-0.5,15.4l-23.6,22c-4.4,4.1-11.3,3.8-15.3-0.6L2.9,360.6c-4.1-4.4-3.8-11.3,0.6-15.4
		l23.6-22c4.4-4.1,11.3-3.8,15.3,0.6L179.6,471.7z M354.8,193.3c4.1,4.4,3.8,11.3-0.6,15.4L205.9,347.3c-4.4,4.1-11.3,3.8-15.3-0.6
		l-35.4-38.2c-4.1-4.4-3.8-11.3,0.6-15.4L304,154.5c4.4-4.1,11.2-3.8,15.3,0.6L354.8,193.3z M230.1,424.5c4.1,4.4,3.8,11.3-0.6,15.4
		l-23.6,22c-4.4,4.1-11.3,3.8-15.3-0.6l-137.2-148c-4.1-4.4-3.8-11.3,0.5-15.4l23.6-22c4.4-4.1,11.3-3.8,15.3,0.6L230.1,424.5z
		 M458.7,198.6c4.1,4.4,3.8,11.3-0.6,15.4l-23.6,22c-4.4,4.1-11.3,3.8-15.3-0.5L282,87.5c-4.1-4.4-3.8-11.3,0.5-15.4l23.7-22.1
		c4.4-4.1,11.2-3.8,15.3,0.6L458.7,198.6z M509.1,151.5c4.1,4.4,3.8,11.3-0.6,15.4l-23.6,22c-4.4,4.1-11.2,3.8-15.3-0.5l-137.2-148
		c-4.1-4.4-3.8-11.3,0.5-15.4l23.6-22.1c4.4-4.1,11.2-3.8,15.3,0.5L509.1,151.5z"/>
</g>
</svg>
