<?xml version="1.0" standalone="no"?>
<!DOCTYPE svg PUBLIC "-//W3C//DTD SVG 20010904//EN"
 "http://www.w3.org/TR/2001/REC-SVG-20010904/DTD/svg10.dtd">
<svg version="1.0" xmlns="http://www.w3.org/2000/svg"
 width="73.330497pt" height="87.806875pt" viewBox="0 0 73.330497 87.806875"
 preserveAspectRatio="xMidYMid meet">
<metadata>
Created by potrace 1.12, written by Peter Selinger 2001-2015
</metadata>
<g transform="translate(-12.222319,94.000000) scale(0.100000,-0.100000)"
fill="#000000" stroke="none">
<path d="M396 924 c-13 -13 -16 -42 -16 -157 0 -138 -2 -148 -50 -337 -28
-107 -48 -205 -45 -217 7 -30 50 -41 74 -19 11 10 28 55 40 104 12 48 26 104
32 125 l10 37 70 0 c62 0 70 -2 65 -17 -25 -87 -76 -337 -71 -352 7 -23 37
-35 65 -26 22 7 24 15 70 215 18 74 33 136 35 138 4 4 10 -16 55 -198 18 -73
39 -133 50 -144 23 -23 66 -15 75 14 4 12 -17 112 -50 238 -76 290 -94 312
-250 312 l-75 0 0 134 c0 142 -7 166 -50 166 -10 0 -26 -7 -34 -16z"/>
<path d="M171 686 c-87 -48 -50 -186 49 -186 51 0 100 49 100 99 0 75 -83 124
-149 87z"/>
</g>
</svg>
