<?xml version="1.0" standalone="no"?>
<!DOCTYPE svg PUBLIC "-//W3C//DTD SVG 20010904//EN"
 "http://www.w3.org/TR/2001/REC-SVG-20010904/DTD/svg10.dtd">
<svg version="1.0" xmlns="http://www.w3.org/2000/svg"
 width="511.586365pt" height="498.347787pt" viewBox="0 0 511.586365 498.347787"
 preserveAspectRatio="xMidYMid meet">
<metadata>
Created by potrace 1.12, written by Peter Selinger 2001-2015
</metadata>
<g transform="translate(-0.382475,505.182475) scale(0.100000,-0.100000)"
fill="#000000" stroke="none">
<path d="M3169 5049 c-216 -24 -380 -248 -340 -465 37 -201 195 -334 396 -334
203 0 362 136 397 339 45 264 -177 490 -453 460z"/>
<path d="M2200 4605 c-16 -19 -7 -96 25 -208 70 -251 215 -470 423 -637 464
-374 1153 -324 1742 126 52 40 120 98 149 128 l55 56 -18 37 c-63 133 -338
423 -400 423 -8 0 -38 -28 -67 -62 -61 -75 -180 -184 -258 -235 -327 -217
-763 -239 -1121 -58 -152 77 -320 221 -421 361 -61 85 -84 99 -109 69z"/>
<path d="M1307 3970 c-148 -16 -362 -72 -376 -99 -11 -20 -201 -811 -201 -834
0 -9 9 -21 20 -27 16 -8 39 -1 127 43 281 141 514 207 729 207 124 0 201 -14
279 -50 73 -34 120 -76 145 -132 26 -57 25 -103 -4 -163 -68 -143 -268 -244
-573 -290 -117 -17 -263 -20 -263 -5 0 6 -20 10 -45 10 l-45 0 0 -36 c0 -62
66 -291 147 -509 52 -140 84 -203 124 -241 l29 -28 73 13 c211 38 331 36 477
-6 117 -34 189 -75 258 -147 107 -112 155 -241 155 -416 0 -113 -17 -180 -69
-268 -101 -171 -337 -308 -640 -369 -128 -26 -437 -25 -548 1 -451 105 -767
464 -981 1116 -52 157 -58 170 -85 170 -38 0 -42 -22 -30 -142 56 -545 237
-981 532 -1277 276 -278 628 -422 1028 -423 237 0 421 42 625 141 311 152 508
382 591 686 25 94 30 294 9 406 -30 168 -92 328 -191 498 -36 62 -36 64 -13
57 13 -4 76 -10 140 -13 334 -16 542 111 849 518 242 321 389 482 498 546 148
87 269 -53 336 -389 46 -228 53 -573 17 -843 -69 -507 -259 -825 -494 -825
-202 0 -459 210 -731 598 -55 79 -74 92 -104 74 -22 -15 -36 -191 -23 -306 35
-339 181 -593 430 -754 262 -170 594 -177 903 -20 119 61 201 122 298 224 474
498 548 1476 162 2147 -130 226 -296 386 -511 492 -150 74 -244 98 -391 99
-138 1 -196 -12 -305 -67 -193 -97 -310 -214 -615 -617 -263 -348 -345 -436
-481 -523 -133 -84 -276 -102 -424 -52 -80 26 -185 80 -185 94 0 4 39 34 88
68 223 154 379 350 448 563 24 75 27 100 28 220 0 127 -2 141 -32 230 -77 223
-229 397 -451 514 -219 115 -476 162 -734 136z"/>
</g>
</svg>
