<?xml version="1.0" standalone="no"?>
<!DOCTYPE svg PUBLIC "-//W3C//DTD SVG 20010904//EN"
 "http://www.w3.org/TR/2001/REC-SVG-20010904/DTD/svg10.dtd">
<svg version="1.0" xmlns="http://www.w3.org/2000/svg"
 width="511.609829pt" height="511.407505pt" viewBox="0 0 511.609829 511.407505"
 preserveAspectRatio="xMidYMid meet">
<metadata>
Created by potrace 1.12, written by Peter Selinger 2001-2015
</metadata>
<g transform="translate(-0.132519,511.557847) scale(0.100000,-0.100000)"
fill="#000000" stroke="none">
<path d="M3797 5110 c-266 -31 -502 -150 -688 -347 -193 -206 -301 -452 -329
-754 -9 -101 -44 -249 -58 -249 -2 0 -53 35 -111 78 -443 328 -835 529 -1196
614 -120 28 -322 30 -410 4 -94 -29 -154 -64 -216 -125 -149 -149 -185 -382
-108 -696 55 -226 201 -540 376 -813 35 -54 49 -84 40 -87 -6 -2 -48 -13 -91
-25 -533 -141 -928 -604 -995 -1165 -57 -478 146 -961 529 -1255 431 -330
1010 -381 1487 -130 342 179 587 483 683 846 12 43 23 85 25 92 3 8 32 -5 87
-41 432 -277 858 -431 1146 -413 163 10 270 53 363 145 104 105 142 213 143
406 0 178 -39 345 -139 584 -100 240 -314 597 -514 855 -34 43 -61 82 -61 86
0 16 140 49 249 60 327 32 591 156 802 377 174 182 272 400 300 663 63 598
-328 1143 -913 1271 -103 23 -291 31 -401 19z m322 -221 c277 -43 548 -245
678 -504 76 -149 104 -271 104 -440 0 -351 -156 -629 -455 -809 -135 -81 -288
-128 -476 -146 -149 -14 -213 -31 -318 -82 -155 -76 -327 -219 -517 -430 -64
-71 -73 -78 -108 -78 -69 0 -248 105 -365 214 -125 117 -262 332 -262 413 0
35 6 44 78 108 211 190 354 362 430 517 51 104 68 169 82 317 12 129 31 215
64 305 172 456 579 691 1065 615z m-2544 -1068 c99 -46 146 -139 123 -245 -15
-69 -85 -139 -154 -154 -174 -38 -315 130 -243 288 27 60 45 79 104 106 60 29
116 30 170 5z m-43 -1706 l67 -14 249 -248 249 -248 18 -74 c22 -92 16 -265
-13 -356 -80 -251 -268 -435 -517 -507 -104 -29 -286 -32 -385 -4 -259 71
-465 277 -536 536 -25 88 -25 280 -1 370 9 36 37 106 62 155 92 187 251 322
445 379 101 30 254 34 362 11z m2183 -430 c67 -27 125 -115 125 -190 0 -42
-29 -116 -58 -149 -26 -30 -113 -66 -157 -66 -66 1 -141 43 -180 103 -25 39
-35 107 -23 161 8 38 21 60 58 97 67 66 145 81 235 44z"/>
<path d="M3825 4684 c-244 -51 -431 -187 -539 -393 -68 -130 -105 -326 -72
-389 34 -65 118 -79 166 -27 19 20 26 45 37 123 17 129 68 236 153 321 98 97
193 142 345 160 71 9 83 13 107 40 40 45 39 99 -3 140 -29 29 -35 31 -102 30
-40 -1 -81 -3 -92 -5z"/>
</g>
</svg>
