<?xml version="1.0" standalone="no"?>
<!DOCTYPE svg PUBLIC "-//W3C//DTD SVG 20010904//EN"
 "http://www.w3.org/TR/2001/REC-SVG-20010904/DTD/svg10.dtd">
<svg version="1.0" xmlns="http://www.w3.org/2000/svg"
 width="512.000000pt" height="512.000000pt" viewBox="0 0 512.000000 512.000000"
 preserveAspectRatio="xMidYMid meet">
<metadata>
Created by potrace 1.16, written by Peter Selinger 2001-2019
</metadata>
<g transform="translate(0.000000,512.000000) scale(0.100000,-0.100000)"
fill="#000000" stroke="none">
<path d="M2499 5104 c-7 -9 -16 -59 -20 -122 -5 -82 -14 -127 -39 -193 -51
-140 -109 -217 -311 -411 -181 -174 -452 -466 -478 -516 -18 -34 -10 -381 14
-612 36 -355 82 -587 165 -845 141 -434 192 -703 194 -1025 1 -149 -2 -198
-17 -250 -24 -89 -60 -164 -107 -227 -36 -47 -47 -54 -108 -72 -37 -11 -144
-31 -239 -46 -94 -14 -203 -35 -243 -46 -149 -41 -259 -118 -316 -221 -26 -47
-29 -63 -29 -138 0 -78 3 -92 34 -153 79 -155 222 -227 453 -227 99 0 368 33
618 75 290 49 692 47 1020 -6 435 -70 623 -83 748 -54 133 32 227 102 283 212
31 61 34 75 34 153 0 75 -3 91 -29 138 -57 103 -167 180 -316 221 -40 11 -149
32 -243 46 -95 15 -202 35 -239 46 -61 18 -72 25 -108 72 -47 63 -83 138 -107
227 -15 52 -18 101 -17 250 2 322 53 591 194 1025 83 258 129 490 165 845 24
231 32 578 14 612 -26 50 -297 341 -478 516 -202 193 -256 265 -309 407 -27
72 -36 111 -41 197 -4 63 -13 113 -20 122 -18 22 -104 22 -122 0z m204 -781
c198 -266 344 -498 397 -634 19 -48 20 -60 10 -168 -21 -226 -63 -408 -123
-530 -34 -70 -115 -166 -147 -174 -21 -5 -80 35 -80 55 0 6 22 34 49 63 110
116 153 274 132 485 -13 134 -39 204 -99 262 -67 64 -131 83 -282 83 -151 0
-215 -19 -282 -83 -60 -58 -86 -128 -99 -262 -21 -211 22 -369 132 -485 27
-29 49 -57 49 -63 0 -20 -59 -60 -80 -55 -32 8 -113 104 -147 174 -60 122
-102 304 -123 530 -12 127 -8 143 56 272 74 145 466 707 494 707 6 0 70 -80
143 -177z"/>
</g>
</svg>
