<?xml version="1.0" encoding="utf-8"?>
<!-- Svg Vector Icons : http://www.onlinewebfonts.com/icon -->
<!DOCTYPE svg PUBLIC "-//W3C//DTD SVG 1.1//EN" "http://www.w3.org/Graphics/SVG/1.1/DTD/svg11.dtd">
<svg version="1.1" xmlns="http://www.w3.org/2000/svg" xmlns:xlink="http://www.w3.org/1999/xlink" x="0px" y="0px" viewBox="0 0 256 256" enable-background="new 0 0 256 256" xml:space="preserve">
<metadata> Svg Vector Icons : http://www.onlinewebfonts.com/icon </metadata>
<g><g><path fill="#000000" d="M241,90.2c3.6-3.7,5.4-8.7,5-13.8c-0.5-5.1-3.2-9.7-7.4-12.6c-5.4-3.7-14.2-8.4-25.3-9.5c-1.5-0.1-2.9-0.2-4.4-0.1c3.1-5.1,5.7-10.6,7-16c1.2-5.1-2-10.1-7-11.3c-5.1-1.2-10.1,2-11.3,7c-1,4.4-3.8,9.3-7,14c0,0,0-0.1,0-0.1c-2.3-10.9-8.1-20.4-12.5-26.5c-2.8-3.8-7.2-6.1-11.9-6c-4.7,0-9.1,2.4-11.8,6.2c-3.1,4.5-5.8,9.5-7.8,14.8c-0.2,0.5-0.4,1-0.5,1.5c-6.8-5.4-14.3-9.8-22.2-12.1c-7.9-2.3-15.5-3.5-22.6-3.5c-24.8,0-45.1,13.8-60.3,41c-20.4,36.5-24.1,58.3-26.5,72.7l0,0.2c-2.7,16.2-5.5,38.9-3.3,54.9c1.5,10.8,5.9,20,9.4,25.9c3.4,5.7,8.2,10.5,13.9,13.9c5.9,3.4,15.1,7.9,25.9,9.4c3.9,0.6,8.5,0.8,13.4,0.8c11.3,0,25.3-1.4,41.5-4.1l0.2,0c14.4-2.4,36.3-6.1,72.7-26.5c35.1-19.6,47.8-47.5,37.5-82.9c-2.4-8.3-7.2-16.2-13.1-23.4c3.4-0.5,6.8-1.2,10-2.3C229.7,99.1,235.9,95.3,241,90.2z M104.2,57.9l6.2-6.2c3.7-3.7,9.7-3.7,13.3,0c3.7,3.7,3.7,9.7,0,13.3l-6.2,6.2c-1.9,1.8-4.3,2.8-6.7,2.8c-2.4,0-4.8-0.9-6.7-2.8C100.5,67.5,100.5,61.6,104.2,57.9z M53.5,172.4l-5.3,5.3c-1.8,1.8-4.3,2.8-6.7,2.8c-2.4,0-4.8-0.9-6.7-2.8c-3.7-3.7-3.7-9.7,0-13.3l5.3-5.3c3.7-3.7,9.7-3.7,13.3,0C57.2,162.8,57.2,168.7,53.5,172.4z M65.9,125.6l-6.2,6.2c-1.8,1.9-4.3,2.8-6.7,2.8c-2.4,0-4.8-0.9-6.7-2.8c-3.7-3.7-3.7-9.7,0-13.3l6.2-6.2c3.7-3.7,9.7-3.7,13.3,0C69.5,115.9,69.5,121.9,65.9,125.6z M90.6,209.5l-5.3,5.3c-1.9,1.9-4.3,2.8-6.7,2.8c-2.4,0-4.8-0.9-6.7-2.8c-3.7-3.7-3.7-9.7,0-13.3l5.3-5.3c3.7-3.7,9.7-3.7,13.3,0C94.3,199.9,94.3,205.8,90.6,209.5z M101.7,161.4l-6.2,6.2c-1.9,1.8-4.3,2.8-6.7,2.8c-2.4,0-4.8-0.9-6.7-2.8c-3.7-3.7-3.7-9.7,0-13.3l6.2-6.2c3.7-3.7,9.7-3.7,13.3,0C105.4,151.7,105.4,157.7,101.7,161.4z M112.7,113.2l-6.2,6.2c-1.8,1.8-4.3,2.8-6.7,2.8c-2.4,0-4.8-0.9-6.7-2.8c-3.7-3.7-3.7-9.7,0-13.3l6.2-6.2c3.7-3.7,9.7-3.7,13.3,0C116.4,103.5,116.4,109.5,112.7,113.2z M137.5,197.2l-6.2,6.2c-1.9,1.8-4.3,2.8-6.7,2.8c-2.4,0-4.8-0.9-6.7-2.8c-3.7-3.7-3.7-9.7,0-13.3l6.2-6.2c3.7-3.7,9.7-3.7,13.3,0C141.1,187.5,141.1,193.5,137.5,197.2z M149.8,150.3l-6.2,6.2c-1.8,1.8-4.3,2.8-6.7,2.8s-4.8-0.9-6.7-2.8c-3.7-3.7-3.7-9.7,0-13.3l6.2-6.2c3.7-3.7,9.7-3.7,13.3,0C153.5,140.7,153.5,146.7,149.8,150.3z M160.9,102.2l-6.2,6.2c-1.9,1.8-4.3,2.8-6.7,2.8c-2.4,0-4.8-0.9-6.7-2.8c-3.7-3.7-3.7-9.7,0-13.3l6.2-6.2c3.7-3.7,9.7-3.7,13.3,0C164.5,92.5,164.5,98.5,160.9,102.2z M172.2,65.9c-3-4-6.5-8.5-10.6-13.1c0.3-3,0.9-6.4,2.2-9.9c0.8-2,1.6-3.7,2.4-5.2c2.3,3.9,4.6,8.7,5.7,13.8C173.2,57.5,172.9,62.4,172.2,65.9z M198,139.3l-6.2,6.2c-1.9,1.8-4.3,2.8-6.7,2.8c-2.4,0-4.8-0.9-6.7-2.8c-3.7-3.7-3.7-9.7,0-13.3l6.2-6.2c3.7-3.7,9.7-3.7,13.3,0C201.7,129.6,201.7,135.6,198,139.3z M193.8,85.6c-2-1.7-4.1-3.3-6-4.8c5.4-3.6,15.1-8.7,23.5-7.8c6.1,0.6,11.2,3,14.8,5.2c-2.7,2.4-6.1,4.2-9.9,5.6C209.5,86.1,200.7,86.2,193.8,85.6z"/><g></g><g></g><g></g><g></g><g></g><g></g><g></g><g></g><g></g><g></g><g></g><g></g><g></g><g></g><g></g></g></g>
</svg>