<?xml version="1.0" standalone="no"?>
<!DOCTYPE svg PUBLIC "-//W3C//DTD SVG 20010904//EN"
 "http://www.w3.org/TR/2001/REC-SVG-20010904/DTD/svg10.dtd">
<svg version="1.0" xmlns="http://www.w3.org/2000/svg"
 width="511.622533pt" height="413.921316pt" viewBox="0 0 511.622533 413.921316"
 preserveAspectRatio="xMidYMid meet">
<metadata>
Created by potrace 1.12, written by Peter Selinger 2001-2015
</metadata>
<g transform="translate(-0.227796,462.921316) scale(0.100000,-0.100000)"
fill="#000000" stroke="none">
<path d="M2665 4611 c-153 -55 -257 -156 -306 -298 -115 -336 169 -678 519
-625 234 36 402 231 402 467 0 45 -7 105 -16 136 -44 148 -175 280 -323 323
-74 22 -211 20 -276 -3z"/>
<path d="M3011 3649 c-110 -21 -247 -116 -308 -213 -60 -94 -87 -249 -64 -367
7 -34 30 -108 51 -163 52 -135 64 -197 58 -297 -6 -112 -38 -198 -126 -343
-39 -65 -73 -129 -77 -144 -4 -20 -26 -40 -78 -74 -523 -336 -1269 -537 -2003
-538 -298 -1 -375 -30 -435 -164 -79 -181 25 -396 207 -424 74 -12 580 4 739
23 653 77 1246 263 1686 528 l106 63 124 -42 c126 -42 277 -101 292 -114 8 -7
-144 -130 -263 -213 -36 -25 -114 -73 -175 -107 -133 -75 -151 -91 -181 -155
-85 -180 75 -415 282 -415 38 0 84 8 112 18 121 46 335 193 572 392 63 53 170
140 237 193 186 148 232 214 232 332 0 118 -59 203 -208 300 -53 34 -118 74
-146 88 -94 48 -92 40 -41 147 55 118 90 222 118 359 27 132 30 416 5 546 -8
44 -14 81 -13 82 1 1 137 -13 302 -32 164 -19 426 -44 582 -56 274 -21 286
-22 340 -4 202 62 245 355 75 505 -63 55 -113 67 -353 85 -582 43 -1229 124
-1308 164 -88 45 -231 62 -341 40z"/>
</g>
</svg>
